<?xml version="1.0" encoding="utf-8"?>
<!-- Generator: Adobe Illustrator 19.2.1, SVG Export Plug-In . SVG Version: 6.00 Build 0)  -->
<svg version="1.1" id="layer" xmlns="http://www.w3.org/2000/svg" xmlns:xlink="http://www.w3.org/1999/xlink" x="0px" y="0px"
	 viewBox="0 0 652 652" style="enable-background:new 0 0 652 652;" xml:space="preserve">
<style type="text/css">
	.st0{fill:#BFA253;}
	.st1{fill:#3E3A39;}
	.st2{fill-rule:evenodd;clip-rule:evenodd;fill:#BFA253;}
	.st3{fill-rule:evenodd;clip-rule:evenodd;fill:#C29D51;}
	.st4{fill-rule:evenodd;clip-rule:evenodd;fill:#3E3A39;}
</style>
<g>
	<path class="st0" d="M333.7,347.2c-0.8-1.3-1.7-1.9-3.3-1.9c-1.6,0-3.4,1.1-3.4,2.9c0,1.6,1.6,2.4,2.9,2.9l1.5,0.6
		c2.9,1.1,5.1,2.7,5.1,6.2c0,3.7-2.9,6.4-6.5,6.4c-3.3,0-5.9-2.4-6.3-5.7l2.6-0.5c0,2.3,1.8,3.9,4,3.9c2.2,0,3.8-1.8,3.8-4
		c0-2.2-1.8-3.1-3.5-3.9l-1.4-0.6c-2.3-1-4.5-2.3-4.5-5.2c0-3.3,2.9-5.3,6-5.3c2.3,0,4.2,1.1,5.3,3.1L333.7,347.2"/>
	<rect x="344" y="343.4" class="st0" width="2.6" height="20.5"/>
	<polygon class="st0" points="355,342.4 370.4,358.5 370.4,343.4 372.9,343.4 372.9,364.7 357.6,348.6 357.6,363.8 355,363.8 	"/>
	<path class="st0" d="M396.4,347.3c-1.5-1.3-3.5-2-5.4-2c-4.6,0-8.1,3.8-8.1,8.4c0,4.5,3.5,8.3,8,8.3c2,0,3.9-0.8,5.5-2.1v3
		c-1.6,0.9-3.6,1.4-5.4,1.4c-5.8,0-10.7-4.6-10.7-10.6c0-6,4.9-10.8,10.9-10.8c1.8,0,3.6,0.4,5.2,1.4V347.3"/>
	<polygon class="st0" points="404.3,343.4 415.3,343.4 415.3,345.7 406.8,345.7 406.8,351.4 415,351.4 415,353.7 406.8,353.7 
		406.8,361.5 415.3,361.5 415.3,363.8 404.3,363.8 	"/>
	<polygon class="st0" points="437.4,345.7 438.8,343.4 443.4,343.4 443.4,363.8 441,363.8 441,345.7 	"/>
	<path class="st0" d="M458.6,363l5.5-7.4l-0.1-0.1c-0.6,0.3-1.3,0.4-2,0.4c-3.4,0-5.9-3-5.9-6.3c0-3.7,3-6.7,6.8-6.7
		c3.5,0,6.8,2.9,6.8,6.5c0,2-1,3.8-2.2,5.4l-7,9.4L458.6,363 M467.2,349.5c0-2.2-2-4.3-4.2-4.3c-2.4,0-4.5,2-4.5,4.3
		c0,2.4,2.2,4.3,4.3,4.3C465.4,353.8,467.2,351.7,467.2,349.5"/>
	<path class="st0" d="M482.7,351.9c2.2,0,4-0.8,4-3.3c0-2.1-1.5-3.5-3.6-3.5c-1.8,0-3.1,1.2-3.4,2.9h-2.5c0.5-3.4,2.6-5.2,6-5.2
		c3.3,0,5.9,2.1,5.9,5.5c0,2-0.9,3.6-2.6,4.6c2,1,2.9,2.9,2.9,5.1c0,3.8-2.9,6.1-6.5,6.1c-3.2,0-6.1-2.1-6.2-5.5h2.5
		c0.2,2,2,3.3,4,3.3c2.3,0,3.9-1.8,3.9-4c0-2.6-1.8-4.2-4.3-4V351.9"/>
	<path class="st0" d="M507.9,344.2l-5.5,7.4l0.1,0.1c0.6-0.3,1.3-0.5,2-0.5c3.4,0,5.9,3.1,5.9,6.4c0,3.7-3,6.7-6.8,6.7
		c-3.5,0-6.8-2.9-6.8-6.5c0-2.1,1-3.8,2.2-5.4l7-9.4L507.9,344.2 M508,357.8c0-2.6-2.2-4.4-4.3-4.4c-2.2,0-4.3,2-4.3,4.3
		c0,2.4,2,4.3,4.3,4.3C505.9,362,508,360.1,508,357.8"/>
	<path class="st1" d="M246.1,298.4c-2.4-2.2-5.8-3.3-9-3.3c-7.6,0-13.5,6.4-13.5,13.9c0,7.5,5.8,13.8,13.4,13.8
		c3.3,0,6.6-1.3,9.1-3.5v5c-2.6,1.5-6,2.4-9,2.4c-9.7,0-17.8-7.7-17.8-17.6c0-10.1,8.1-18,18.1-18c3,0,6,0.7,8.6,2.3V298.4
		 M231.7,282.2l5.3,3.7l5.6-3.7l3.1,1.8l-8.6,5.7l-8.5-5.7L231.7,282.2z"/>
	<polygon class="st1" points="251.2,291.9 269.5,291.9 269.5,295.8 255.4,295.8 255.4,305.3 269.1,305.3 269.1,309.2 255.4,309.2 
		255.4,322.1 269.5,322.1 269.5,326 251.2,326 	"/>
	<path class="st1" d="M289.9,298.4c-1.3-2.1-2.9-3.2-5.5-3.2c-2.7,0-5.7,1.9-5.7,4.8c0,2.7,2.6,4.1,4.8,4.9l2.4,0.9
		c4.8,1.9,8.5,4.6,8.5,10.3c0,6.2-4.8,10.6-10.9,10.6c-5.5,0-9.8-4.1-10.5-9.5l4.3-0.9c0,3.8,2.9,6.5,6.6,6.5c3.7,0,6.3-3.1,6.3-6.7
		c0-3.7-2.9-5.2-5.9-6.5l-2.4-1c-3.9-1.7-7.4-3.9-7.4-8.6c0-5.5,4.9-8.8,10-8.8c3.8,0,6.9,1.9,8.8,5.2L289.9,298.4"/>
	<polygon class="st1" points="317.7,291.9 323.3,291.9 308,307.2 323.6,326 317.8,326 305,310.1 303.3,311.7 303.3,326 299,326 
		299,291.9 303.3,291.9 303.3,306.7 	"/>
	<path class="st1" d="M331,317.4l-3.9,8.5h-4.6l16.3-35.5l16.3,35.5h-4.6l-3.9-8.5H331z M338.8,299.8l-6.1,13.8h12.1L338.8,299.8z
		 M346.1,283.8l-9.2,5.6l-2.5-1l7.1-6.2L346.1,283.8z"/>
	<polygon class="st1" points="392.4,322.1 392.4,326 368.2,326 385.4,295.8 370.6,295.8 370.6,291.9 392.4,291.9 375.1,322.1 	"/>
	<path class="st1" d="M395.6,291.9h4.2c6.4,0,12.5,1.7,12.5,9.4c0,2.5-1.4,5.4-3.7,6.5v0.1c4,0.7,6.8,4.7,6.8,8.6
		c0,6.8-5.8,9.5-11.8,9.5h-8V291.9 M399.9,307h1.1c4,0,7.3-0.8,7.3-5.7c0-4.8-3.3-5.6-7.2-5.6h-1.2V307z M399.9,322.2h3.3
		c3.9,0,8.1-1.2,8.1-6c0-4.8-4.9-5.8-8.7-5.8h-2.6V322.2z"/>
	<path class="st1" d="M441.4,326h-5.2l-10-14.4h-1.8V326h-4.3v-34.1h5.2c3,0,6.3,0,9,1.6c2.9,1.7,4.5,4.9,4.5,8.1
		c0,4.9-3.3,9-8.2,9.5L441.4,326 M424.4,308h1.4c4.3,0,9-0.8,9-6.2c0-5.3-5.1-6.1-9.3-6.1h-1.1V308z"/>
	<path class="st1" d="M478.1,308.9c0,10.1-8,17.8-17.9,17.8c-9.9,0-17.9-7.6-17.9-17.8c0-9.8,8.1-17.8,17.9-17.8
		C470,291.2,478.1,299.2,478.1,308.9 M473.8,308.9c0-7.5-5.6-13.8-13.6-13.8c-8,0-13.6,6.3-13.6,13.8c0,7.8,6.2,13.8,13.6,13.8
		C467.6,322.7,473.8,316.7,473.8,308.9"/>
	<path class="st1" d="M492.6,291.9v21.7c0,6.6-1.3,13.2-9.2,13.2c-2,0-3.7-0.5-5.3-1.5l2.1-3.6c1,0.7,2.2,1.1,3.4,1.1
		c4.9,0,4.8-5.7,4.8-9.2v-21.7H492.6"/>
	<path class="st1" d="M531.9,308.9c0,10.1-8,17.8-17.9,17.8c-9.9,0-17.9-7.6-17.9-17.8c0-9.8,8.1-17.8,17.9-17.8
		C523.8,291.2,531.9,299.2,531.9,308.9 M527.6,308.9c0-7.5-5.6-13.8-13.6-13.8c-8,0-13.6,6.3-13.6,13.8c0,7.8,6.2,13.8,13.6,13.8
		S527.6,316.7,527.6,308.9"/>
	<polygon class="st1" points="547.3,317.1 557.4,291.9 562,291.9 547.3,327.8 532.4,291.9 537.1,291.9 	"/>
	<polygon class="st1" points="583.7,291.9 589.2,291.9 573.9,307.2 589.5,326 583.8,326 570.9,310.1 569.2,311.7 569.2,326 
		564.9,326 564.9,291.9 569.2,291.9 569.2,306.7 	"/>
	<path class="st1" d="M596.9,317.4L593,326h-4.6l16.3-35.5L621,326h-4.6l-3.9-8.5H596.9z M604.7,299.8l-6.1,13.8h12.1L604.7,299.8z"
		/>
	<polygon class="st2" points="52.7,318.4 50.5,289.3 144.5,289.8 146.4,313.9 138.1,322.2 148.1,332.1 149.3,349.5 131.3,367.3 
		108.8,367.2 106.8,344.6 116.4,344.7 117.6,357.6 127.5,357.7 139.5,345.8 138.5,336.2 124.6,322.1 136.3,310 135.6,299.3 
		60.9,298.9 61.6,308.8 74.8,308.9 75.5,318.5 	"/>
	<polygon class="st3" points="116.2,338.2 113.7,309.1 103.9,309 105.6,328.5 92.6,328.4 90.9,309 81.3,308.9 83.7,338 	"/>
	<path class="st4" d="M102.4,241.3l-0.3-0.3C57.8,240.8,21.3,277,21,321.6c-0.2,44.4,35.9,80.9,80.3,81.1c0,0,0.3,0.3,0.3,0
		c44.4,0,80.6-35.9,80.9-80.3C182.7,278,146.8,241.8,102.4,241.3 M127.4,384.7l-1.3-3.1c-7.5,3.1-16.1,5.1-24.4,5.1h-0.3
		c-8.3,0-17.1-1.9-24.6-5.1l-1.3,2.8c-16.3-6.6-29.7-20.7-36.4-36.8l3.1-1.3c-3.1-7.5-5.1-16.4-5.1-24.7c0-8.3,1.9-17.1,5.1-24.9
		l-3.1-1c6.8-16.6,20.7-30.3,37-36.7l1.3,2.9c7.5-2.8,16.4-4.6,24.7-4.6l0.3,0.3c8.3,0,16.9,1.9,24.4,4.5l1.3-2.8
		c16.3,6.6,30,20.4,36.7,37l-3.1,1c3.1,7.8,4.8,16.6,4.8,24.9c0,8.3-1.9,17.1-5.1,24.6l3.1,1.3C157.6,364.6,143.5,378,127.4,384.7"
		/>
</g>
</svg>
